# xmcd
#
# Track frame offsets:
#	150
#	17645
#	28512
#	40512
#	55747
#	66992
#	78872
#	94535
#	109982
#	122245
#	133012
#	142942
#	151317
#	163880
#	193592
#	207120
#	220855
#	232682
#	249712
#	264405
#	278027
#	290790
#
# Disc length: 4029 seconds
#
# Revision: 0
# Processed by: cddbd v1.4PL0 Copyright (c) Steve Scherf et al.
# Submitted via: dBpowerAMP V4.0
#
DISCID=340fbb16
DTITLE=Ike and Tina Turner - Portrait In Blues - Disc 3 - Outta Season/The Hunter
DYEAR=1900
DGENRE=Blues
TTITLE0=I've Been Loving You Too Long - Outta Season
TTITLE1=Mean Old World - Outta Season
TTITLE2=3 O'Clock In The Morning Blues - Outta Season
TTITLE3=Five Long Years - Outta Season
TTITLE4=Dust My Broom - Outta Season
TTITLE5=Grumbling - Outta Season
TTITLE6=I Am A Motherless Child - Outta Season
TTITLE7=Crazy 'Bout You baby - Outta Season
TTITLE8=Reconsider Baby - Outta Season
TTITLE9=Honest I Do - Outta Season
TTITLE10=Please Love Me - Outta Season
TTITLE11=My Babe - Outta Season
TTITLE12=Rock Me Baby - Outta Season
TTITLE13=The Hunter - The Hunter
TTITLE14=You Don't Love Me - The Hunter
TTITLE15=You've Got Me Running - The Hunter
TTITLE16=Bold Soul Sister - The Hunter
TTITLE17=I Smell Trouble - The Hunter
TTITLE18=The Things I Used To Do - The Hunter
TTITLE19=Early In The Morning - The Hunter
TTITLE20=You're Still My Baby - The Hunter
TTITLE21=I Know - The Hunter
EXTD=
EXTT0=
EXTT1=
EXTT2=
EXTT3=
EXTT4=
EXTT5=
EXTT6=
EXTT7=
EXTT8=
EXTT9=
EXTT10=
EXTT11=
EXTT12=
EXTT13=
EXTT14=
EXTT15=
EXTT16=
EXTT17=
EXTT18=
EXTT19=
EXTT20=
EXTT21=
PLAYORDER=
